<mxfile host="app.diagrams.net" modified="2024-07-22T05:38:13.631Z" agent="Mozilla/5.0 (Windows NT 10.0; Win64; x64) AppleWebKit/537.36 (KHTML, like Gecko) Chrome/126.0.0.0 Safari/537.36 Edg/126.0.0.0" version="24.7.1" etag="R_kKk8xUzV8drPsH733G" type="github">
  <diagram name="第 1 页" id="KfhYrYMk04pv71usMEy1">
    <mxGraphModel>
      <root>
        <mxCell id="0" />
        <mxCell id="1" parent="0" />
      </root>
    </mxGraphModel>
  </diagram>
</mxfile>
